#!OML:ASF H:\ManfredETheater\Project 1\Capture day 1\Session 1\subject.ASF
:FULLY-SPECIFIED
:DEGREES
264
root -1.83392 17.1734 43.4569 5.4316 3.09898 -2.14033
lowerback 7.27266 -0.84378 2.07198
upperback -2.71086 -0.743867 2.67041
thorax -6.92101 -0.391172 1.73395
lowerneck -20.6702 -5.51784 -6.26697
upperneck 8.75319 -6.42536 5.23927
head 6.36016 -2.8843 1.95962
rclavicle -1.58779e-014 3.89618e-014
rhumerus -36.9176 -10.6904 -77.3192
rradius 37.2426
rwrist -2.80644
rhand -20.7659 -13.054
rfingers 7.12502
rthumb 5.60036 -42.96
lclavicle -1.58779e-014 3.89618e-014
lhumerus -40.9992 11.7743 77.1383
lradius 44.7688
lwrist -10.8875
lhand -8.70708 5.64703
lfingers 7.12502
lthumb 17.2284 34.9033
rfemur -2.31401 6.30345 24.5456
rtibia 21.2664
rfoot -15.0238 15.6273
rtoes 24.9325
lfemur -33.607 -2.84163 -17.8807
ltibia 32.334
lfoot -12.7257 0.189806
ltoes -9.7435
265
root -1.83034 17.1548 43.538 5.25789 2.67555 -2.38975
lowerback 7.32498 -0.806934 2.14476
upperback -2.66398 -0.682581 2.73521
thorax -6.90258 -0.362635 1.75323
lowerneck -20.7206 -5.44085 -6.17023
upperneck 8.82676 -6.3418 5.19462
head 6.38254 -2.84327 1.93878
rclavicle 9.69075e-015 -3.57812e-014
rhumerus -36.9926 -11.0715 -77.0399
rradius 36.9191
rwrist -2.65909
rhand -20.7979 -13.0176
rfingers 7.12502
rthumb 5.56944 -42.9244
lclavicle 9.69075e-015 -3.57812e-014
lhumerus -41.0463 11.9205 76.9118
lradius 44.4367
lwrist -11.0003
lhand -8.66813 5.77675
lfingers 7.12502
lthumb 17.2659 35.0298
rfemur -1.85341 6.02641 24.7588
rtibia 21.2434
rfoot -14.9478 16.2295
rtoes 25.4783
lfemur -33.3289 -2.85469 -17.5953
ltibia 32.5286
lfoot -12.5051 0.28775
ltoes -9.63107
266
root -1.82549 17.1359 43.6223 5.06783 2.21304 -2.61839
lowerback 7.36488 -0.756698 2.19993
upperback -2.61117 -0.606767 2.78678
thorax -6.87075 -0.326491 1.76613
lowerneck -20.7507 -5.3665 -6.07587
upperneck 8.90359 -6.26378 5.15776
head 6.4036 -2.80466 1.9205
rclavicle -5.19325e-015 1.59028e-014
rhumerus -37.1016 -11.4751 -76.7449
rradius 36.602
rwrist -2.527
rhand -20.9144 -12.909
rfingers 7.12502
rthumb 5.45704 -42.8187
lclavicle -5.19325e-015 1.59028e-014
lhumerus -41.1106 12.0621 76.6792
lradius 44.1038
lwrist -11.0848
lhand -8.66517 5.91651
lfingers 7.12502
lthumb 17.2687 35.1693
rfemur -1.37688 5.76376 24.9412
rtibia 21.2548
rfoot -14.87 16.8105
rtoes 25.9599
lfemur -32.9713 -2.89106 -17.3154
ltibia 32.7387
lfoot -12.3001 0.366584
ltoes -9.63523
267
root -1.81937 17.117 43.7098 4.87145 1.70469 -2.80051
lowerback 7.37662 -0.691183 2.21092
upperback -2.5497 -0.517843 2.81861
thorax -6.81326 -0.282433 1.7806
lowerneck -20.7693 -5.29399 -5.98357
upperneck 8.98258 -6.18976 5.12945
head 6.42426 -2.76747 1.90501
rclavicle 5.1684e-015 3.02153e-014
rhumerus -37.234 -11.8953 -76.4397
rradius 36.2954
rwrist -2.40149
rhand -21.0277 -12.7991
rfingers 7.12502
rthumb 5.34757 -42.7116
lclavicle 5.1684e-015 3.02153e-014
lhumerus -41.1792 12.2086 76.4391
lradius 43.7664
lwrist -11.1599
lhand -8.69286 6.08335
lfingers 7.12502
lthumb 17.2421 35.3384
rfemur -0.896178 5.50829 25.0605
rtibia 21.3022
rfoot -14.7906 17.3842
rtoes 26.3526
lfemur -32.5494 -2.90614 -17.084
ltibia 32.9502
lfoot -12.0604 0.388754
ltoes -9.67651
268
root -1.81148 17.0992 43.8007 4.68168 1.16212 -2.93871
lowerback 7.35541 -0.614332 2.19298
upperback -2.49251 -0.419348 2.82917
thorax -6.74138 -0.232934 1.78729
lowerneck -20.7694 -5.22272 -5.89167
upperneck 9.07191 -6.11953 5.10554
head 6.44585 -2.73197 1.89079
rclavicle 1.16786e-015 1.59028e-014
rhumerus -37.4039 -12.323 -76.1233
rradius 36.0013
rwrist -2.28396
rhand -21.1196 -12.7201
rfingers 7.12502
rthumb 5.25884 -42.6348
lclavicle 1.16786e-015 1.59028e-014
lhumerus -41.2693 12.3503 76.19
lradius 43.4323
lwrist -11.2223
lhand -8.73502 6.25079
lfingers 7.12502
lthumb 17.2015 35.5094
rfemur -0.423413 5.25727 25.1154
rtibia 21.3818
rfoot -14.7084 17.9567
rtoes 26.6724
lfemur -32.0891 -2.87752 -16.9108
ltibia 33.1553
lfoot -11.7397 0.34711
ltoes -9.66049
269
root -1.80125 17.0836 43.8946 4.51437 0.604539 -2.99512
lowerback 7.29298 -0.533429 2.11989
upperback -2.4474 -0.324242 2.80802
thorax -6.65836 -0.183534 1.79179
lowerneck -20.7569 -5.15157 -5.80131
upperneck 9.17742 -6.05067 5.08313
head 6.47096 -2.69717 1.87722
rclavicle 1.56543e-015 -2.18663e-014
rhumerus -37.6064 -12.7406 -75.8056
rradius 35.7217
rwrist -2.18049
rhand -21.2121 -12.6936
rfingers 7.12502
rthumb 5.16956 -42.6105
lclavicle 1.56543e-015 -2.18663e-014
lhumerus -41.3769 12.495 75.9304
lradius 43.0911
lwrist -11.2769
lhand -8.78434 6.41267
lfingers 7.12502
lthumb 17.154 35.6754
rfemur 0.0243587 4.98724 25.0575
rtibia 21.4908
rfoot -14.622 18.5409
rtoes 26.9088
lfemur -31.6268 -2.81444 -16.8401
ltibia 33.3501
lfoot -11.308 0.248539
ltoes -9.37661
270
root -1.78915 17.0711 43.9908 4.37103 0.0477047 -2.97791
lowerback 7.1994 -0.455198 1.99771
upperback -2.42148 -0.239667 2.75911
thorax -6.57757 -0.137963 1.79628
lowerneck -20.7312 -5.07752 -5.70995
upperneck 9.30456 -5.9794 5.05794
head 6.50083 -2.66149 1.86296
rclavicle 3.80176e-015 1.23246e-014
rhumerus -37.844 -13.1379 -75.4903
rradius 35.4649
rwrist -2.08399
rhand -21.2665 -12.8021
rfingers 7.12502
rthumb 5.11699 -42.7203
lclavicle 3.80176e-015 1.23246e-014
lhumerus -41.5093 12.6462 75.6553
lradius 42.7458
lwrist -11.3348
lhand -8.86606 6.59123
lfingers 7.12502
lthumb 17.0754 35.8608
rfemur 0.440958 4.70872 24.899
rtibia 21.626
rfoot -14.4989 19.1374
rtoes 27.1068
lfemur -31.1807 -2.71504 -16.867
ltibia 33.5356
lfoot -10.7736 0.129107
ltoes -8.86441
271
root -1.77569 17.0621 44.0887 4.24968 -0.495051 -2.89223
lowerback 7.07644 -0.381937 1.82993
upperback -2.40728 -0.168075 2.68406
thorax -6.49215 -0.0975494 1.80079
lowerneck -20.7128 -5.00393 -5.61642
upperneck 9.45316 -5.90911 5.02871
head 6.53878 -2.62626 1.84668
rclavicle 4.77083e-015 -2.74323e-014
rhumerus -38.0986 -13.5155 -75.1873
rradius 35.2412
rwrist -2.02089
rhand -21.312 -13.053
rfingers 7.12502
rthumb 5.0731 -42.9722
lclavicle 4.77083e-015 -2.74323e-014
lhumerus -41.6454 12.8072 75.3682
lradius 42.3945
lwrist -11.3989
lhand -8.94682 6.76623
lfingers 7.12502
lthumb 16.9976 36.0425
rfemur 0.817333 4.43479 24.6521
rtibia 21.7998
rfoot -14.3421 19.7214
rtoes 27.2518
lfemur -30.762 -2.57131 -16.9891
ltibia 33.7106
lfoot -10.1629 0.00294181
ltoes -8.10504
272
root -1.76157 17.0569 44.1873 4.14291 -1.0072 -2.7536
lowerback 6.95042 -0.320124 1.62529
upperback -2.41195 -0.115274 2.59034
thorax -6.42475 -0.0653712 1.80944
lowerneck -20.6937 -4.92911 -5.52292
upperneck 9.6242 -5.83721 4.99381
head 6.58373 -2.59061 1.82865
rclavicle 5.01931e-015 -2.22639e-014
rhumerus -38.3776 -13.8801 -74.8844
rradius 35.0129
rwrist -1.9453
rhand -21.3542 -13.2853
rfingers 7.12502
rthumb 5.03239 -43.2056
lclavicle 5.01931e-015 -2.22639e-014
lhumerus -41.7954 12.9848 75.0648
lradius 42.0312
lwrist -11.4718
lhand -9.03599 6.92332
lfingers 7.12502
lthumb 16.9118 36.207
rfemur 1.14522 4.17654 24.3417
rtibia 22.0294
rfoot -14.1442 20.2725
rtoes 26.9184
lfemur -30.3724 -2.39989 -17.1854
ltibia 33.8767
lfoot -9.51385 -0.116412
ltoes -7.0478
273
root -1.74737 17.055 44.2857 4.04584 -1.48556 -2.55333
lowerback 6.82349 -0.268311 1.36998
upperback -2.42664 -0.0808081 2.47612
thorax -6.36715 -0.0406709 1.8278
lowerneck -20.6829 -4.85491 -5.43157
upperneck 9.80853 -5.7653 4.9573
head 6.63447 -2.55492 1.81026
rclavicle 6.95746e-015 -1.78906e-014
rhumerus -38.6676 -14.2376 -74.5859
rradius 34.7878
rwrist -1.85673
rhand -21.3858 -13.5177
rfingers 7.12502
rthumb 5.00185 -43.4387
lclavicle 6.95746e-015 -1.78906e-014
lhumerus -41.9405 13.1807 74.7487
lradius 41.6535
lwrist -11.5594
lhand -9.12567 7.06719
lfingers 7.12502
lthumb 16.8255 36.3582
rfemur 1.40842 3.94231 23.964
rtibia 22.3464
rfoot -13.9046 20.7775
rtoes 26.2936
lfemur -30.003 -2.21787 -17.4625
ltibia 34.0302
lfoot -8.87387 -0.215927
ltoes -5.81168
274
root -1.73399 17.0558 44.3838 3.945 -1.92984 -2.32007
lowerback 6.71423 -0.226327 1.08069
upperback -2.44855 -0.0616452 2.3524
thorax -6.32715 -0.0223642 1.85773
lowerneck -20.6852 -4.78228 -5.34029
upperneck 10.0084 -5.69436 4.91449
head 6.69234 -2.51992 1.78946
rclavicle -1.59525e-014 2.06736e-014
rhumerus -38.973 -14.5931 -74.2856
rradius 34.5604
rwrist -1.74026
rhand -21.4037 -13.7053
rfingers 7.12502
rthumb 4.98454 -43.6267
lclavicle -1.59525e-014 2.06736e-014
lhumerus -42.0826 13.401 74.4193
lradius 41.2578
lwrist -11.6523
lhand -9.22556 7.18572
lfingers 7.12502
lthumb 16.7293 36.4849
rfemur 1.60543 3.74212 23.5592
rtibia 22.7755
rfoot -13.6137 21.2221
rtoes 25.48
lfemur -29.6306 -2.06484 -17.7764
ltibia 34.1719
lfoot -8.30599 -0.277571
ltoes -4.48121
275
root -1.72112 17.0587 44.4805 3.84329 -2.32927 -2.04286
lowerback 6.62039 -0.196674 0.751712
upperback -2.47392 -0.0621339 2.21593
thorax -6.29927 -0.0124106 1.89939
lowerneck -20.6953 -4.71194 -5.25591
upperneck 10.2058 -5.6245 4.87486
head 6.75112 -2.48528 1.7706
rclavicle 6.63444e-015 -5.1684e-015
rhumerus -39.2853 -14.9563 -73.979
rradius 34.3225
rwrist -1.59266
rhand -21.4118 -13.7899
rfingers 7.12502
rthumb 4.97673 -43.7114
lclavicle 6.63444e-015 -5.1684e-015
lhumerus -42.2118 13.653 74.077
lradius 40.8447
lwrist -11.7698
lhand -9.31294 7.29252
lfingers 7.12502
lthumb 16.6452 36.5988
rfemur 1.71524 3.54236 23.1098
rtibia 23.3432
rfoot -13.2678 21.6288
rtoes 24.5821
lfemur -29.2532 -1.96481 -18.1384
ltibia 34.2997
lfoot -7.86011 -0.308877
ltoes -3.12423
276
root -1.70911 17.0627 44.5766 3.72945 -2.69964 -1.7778
lowerback 6.5501 -0.174581 0.431468
upperback -2.50185 -0.0704576 2.08441
thorax -6.28754 -0.00649385 1.94262
lowerneck -20.7037 -4.64265 -5.17596
upperneck 10.4015 -5.55437 4.83267
head 6.80928 -2.45092 1.75172
rclavicle 9.39258e-015 8.74653e-015
rhumerus -39.6177 -15.3209 -73.6603
rradius 34.077
rwrist -1.41352
rhand -21.4187 -13.7463
rfingers 7.12502
rthumb 4.97003 -43.668
lclavicle 9.39258e-015 8.74653e-015
lhumerus -42.3428 13.9293 73.7248
lradius 40.4161
lwrist -11.8906
lhand -9.39696 7.37739
lfingers 7.12502
lthumb 16.5643 36.6904
rfemur 1.75017 3.35092 22.68
rtibia 24.0548
rfoot -12.8523 21.9988
rtoes 23.8074
lfemur -28.849 -1.9265 -18.4803
ltibia 34.42
lfoot -7.57191 -0.288605
ltoes -1.90642
277
root -1.69745 17.0673 44.6718 3.6038 -3.04513 -1.52895
lowerback 6.49243 -0.159088 0.128075
upperback -2.52188 -0.0851933 1.95942
thorax -6.27459 -0.00428422 1.98405
lowerneck -20.7216 -4.57472 -5.09946
upperneck 10.5876 -5.48377 4.78808
head 6.866 -2.41659 1.7326
rclavicle -7.01958e-016 2.78299e-015
rhumerus -39.9528 -15.6832 -73.3359
rradius 33.8326
rwrist -1.20704
rhand -21.412 -13.6258
rfingers 7.12502
rthumb 4.97656 -43.5474
lclavicle -7.01958e-016 2.78299e-015
lhumerus -42.4615 14.2359 73.3693
lradius 39.9754
lwrist -12.01
lhand -9.47118 7.47023
lfingers 7.12502
lthumb 16.4928 36.7892
rfemur 1.7096 3.12423 22.2616
rtibia 24.9068
rfoot -12.3516 22.3677
rtoes 23.2572
lfemur -28.4174 -1.93656 -18.8027
ltibia 34.5371
lfoot -7.43526 -0.229961
ltoes -0.86418
